# MagicaVoxel @ Ephtracy

# group
o 

# material
mtllib TrexR.mtl
usemtl palette

# normals
vn -1 0 0
vn 1 0 0
vn 0 0 1
vn 0 0 -1
vn 0 -1 0
vn 0 1 0

# texcoords
vt 0.0644531 0.5
vt 0.958984 0.5
vt 0.990234 0.5

# verts
v -0.5 0.3 0.2
v -0.5 0.3 -0.2
v -0.5 0.5 0.2
v -0.5 0.5 -0.2
v -0.4 0.2 0.2
v -0.4 0.2 -0.2
v -0.4 0.3 0.3
v -0.4 0.3 0.2
v -0.4 0.3 -0.2
v -0.4 0.3 -0.3
v -0.4 0.4 -0.2
v -0.4 0.4 -0.3
v -0.4 0.5 0.3
v -0.4 0.5 0.2
v -0.4 0.5 -0.2
v -0.4 0.6 0.2
v -0.4 0.6 -0.2
v -0.4 0.7 0.4
v -0.4 0.7 -0.2
v -0.4 0.8 0.4
v -0.4 0.8 0.3
v -0.4 0.8 -0.2
v -0.4 0.8 -0.3
v -0.4 0.9 0.5
v -0.4 0.9 0.3
v -0.4 0.9 0.1
v -0.4 0.9 0
v -0.4 0.9 -0.1
v -0.4 1.1 0.5
v -0.4 1.1 0.4
v -0.4 1.1 0.1
v -0.4 1.1 0
v -0.4 1.1 -0.1
v -0.4 1.1 -0.2
v -0.4 1.1 -0.3
v -0.4 1.2 0.4
v -0.4 1.2 -0.2
v -0.3 0 0.2
v -0.3 0 0.1
v -0.3 0 -0.1
v -0.3 0.1 0.2
v -0.3 0.1 0.1
v -0.3 0.2 0.3
v -0.3 0.2 0.2
v -0.3 0.2 0.1
v -0.3 0.2 -0.1
v -0.3 0.2 -0.2
v -0.3 0.2 -0.3
v -0.3 0.3 0.3
v -0.3 0.3 0.2
v -0.3 0.3 -0.2
v -0.3 0.3 -0.3
v -0.3 0.4 -0.2
v -0.3 0.4 -0.3
v -0.3 0.5 0.3
v -0.3 0.5 0.2
v -0.3 0.5 -0.2
v -0.3 0.5 -0.3
v -0.3 0.6 0.2
v -0.3 0.6 -0.2
v -0.3 0.7 0.5
v -0.3 0.7 0.4
v -0.3 0.7 0.3
v -0.3 0.7 -0.2
v -0.3 0.7 -0.3
v -0.3 0.8 0.5
v -0.3 0.8 0.4
v -0.3 0.8 -0.2
v -0.3 0.8 -0.3
v -0.3 1.1 0.5
v -0.3 1.1 0.4
v -0.3 1.1 -0.2
v -0.3 1.1 -0.3
v -0.3 1.2 0.5
v -0.3 1.2 0.4
v -0.3 1.2 -0.2
v -0.3 1.2 -0.3
v -0.3 1.3 0.4
v -0.3 1.3 -0.2
v -0.2 0.4 0.5
v -0.2 0.4 0.4
v -0.2 0.5 0.5
v -0.2 0.5 0.4
v -0.2 0.5 0.3
v -0.2 0.6 0.5
v -0.2 0.6 0.3
v -0.2 0.8 0.4
v -0.2 0.8 0.3
v -0.2 0.9 0.4
v -0.2 0.9 0.3
v -0.1 0.2 -0.3
v -0.1 0.2 -0.5
v -0.1 0.3 -0.5
v -0.1 0.3 -0.6
v -0.1 0.5 -0.3
v -0.1 0.5 -0.4
v -0.1 0.6 -0.4
v -0.1 0.6 -0.5
v -0.1 0.7 -0.5
v -0.1 0.7 -0.6
v -0.1 1 0.5
v -0.1 1 0.4
v -0.1 1.1 0.5
v -0.1 1.1 0.4
v 0.1 0 0.2
v 0.1 0 0.1
v 0.1 0 -0.1
v 0.1 0.1 0.2
v 0.1 0.1 0.1
v 0.1 0.2 0.1
v 0.1 0.2 -0.1
v 0.1 0.4 0.5
v 0.1 0.4 0.4
v 0.1 0.5 0.5
v 0.1 0.5 0.4
v 0.1 0.5 0.3
v 0.1 0.6 0.5
v 0.1 0.6 0.3
v 0.1 0.8 0.4
v 0.1 0.8 0.3
v 0.1 0.9 0.4
v 0.1 0.9 0.3
v 0.2 1 0.5
v 0.2 1 0.4
v 0.2 1.1 0.5
v 0.2 1.1 0.4
v -0.2 1 0.5
v -0.2 1 0.4
v -0.2 1.1 0.5
v -0.2 1.1 0.4
v -0.1 0 0.2
v -0.1 0 0.1
v -0.1 0 -0.1
v -0.1 0.1 0.2
v -0.1 0.1 0.1
v -0.1 0.2 0.1
v -0.1 0.2 -0.1
v -0.1 0.4 0.5
v -0.1 0.4 0.4
v -0.1 0.5 0.5
v -0.1 0.5 0.4
v -0.1 0.5 0.3
v -0.1 0.6 0.5
v -0.1 0.6 0.3
v -0.1 0.8 0.4
v -0.1 0.8 0.3
v -0.1 0.9 0.4
v -0.1 0.9 0.3
v 0.1 0.2 -0.3
v 0.1 0.2 -0.5
v 0.1 0.3 -0.5
v 0.1 0.3 -0.6
v 0.1 0.5 -0.3
v 0.1 0.5 -0.4
v 0.1 0.6 -0.4
v 0.1 0.6 -0.5
v 0.1 0.7 -0.5
v 0.1 0.7 -0.6
v 0.1 1 0.5
v 0.1 1 0.4
v 0.1 1.1 0.5
v 0.1 1.1 0.4
v 0.2 0.4 0.5
v 0.2 0.4 0.4
v 0.2 0.5 0.5
v 0.2 0.5 0.4
v 0.2 0.5 0.3
v 0.2 0.6 0.5
v 0.2 0.6 0.3
v 0.2 0.8 0.4
v 0.2 0.8 0.3
v 0.2 0.9 0.4
v 0.2 0.9 0.3
v 0.3 0 0.2
v 0.3 0 0.1
v 0.3 0 -0.1
v 0.3 0.1 0.2
v 0.3 0.1 0.1
v 0.3 0.2 0.3
v 0.3 0.2 0.2
v 0.3 0.2 0.1
v 0.3 0.2 -0.1
v 0.3 0.2 -0.2
v 0.3 0.2 -0.3
v 0.3 0.3 0.3
v 0.3 0.3 0.2
v 0.3 0.3 -0.2
v 0.3 0.3 -0.3
v 0.3 0.4 -0.2
v 0.3 0.4 -0.3
v 0.3 0.5 0.3
v 0.3 0.5 0.2
v 0.3 0.5 -0.2
v 0.3 0.5 -0.3
v 0.3 0.6 0.2
v 0.3 0.6 -0.2
v 0.3 0.7 0.5
v 0.3 0.7 0.4
v 0.3 0.7 0.3
v 0.3 0.7 -0.2
v 0.3 0.7 -0.3
v 0.3 0.8 0.5
v 0.3 0.8 0.4
v 0.3 0.8 -0.2
v 0.3 0.8 -0.3
v 0.3 1.1 0.5
v 0.3 1.1 0.4
v 0.3 1.1 -0.2
v 0.3 1.1 -0.3
v 0.3 1.2 0.5
v 0.3 1.2 0.4
v 0.3 1.2 -0.2
v 0.3 1.2 -0.3
v 0.3 1.3 0.4
v 0.3 1.3 -0.2
v 0.4 0.2 0.2
v 0.4 0.2 -0.2
v 0.4 0.3 0.3
v 0.4 0.3 0.2
v 0.4 0.3 -0.2
v 0.4 0.3 -0.3
v 0.4 0.4 -0.2
v 0.4 0.4 -0.3
v 0.4 0.5 0.3
v 0.4 0.5 0.2
v 0.4 0.5 -0.2
v 0.4 0.6 0.2
v 0.4 0.6 -0.2
v 0.4 0.7 0.4
v 0.4 0.7 -0.2
v 0.4 0.8 0.4
v 0.4 0.8 0.3
v 0.4 0.8 -0.2
v 0.4 0.8 -0.3
v 0.4 0.9 0.5
v 0.4 0.9 0.3
v 0.4 0.9 0.1
v 0.4 0.9 0
v 0.4 0.9 -0.1
v 0.4 1.1 0.5
v 0.4 1.1 0.4
v 0.4 1.1 0.1
v 0.4 1.1 0
v 0.4 1.1 -0.1
v 0.4 1.1 -0.2
v 0.4 1.1 -0.3
v 0.4 1.2 0.4
v 0.4 1.2 -0.2
v 0.5 0.3 0.2
v 0.5 0.3 -0.2
v 0.5 0.5 0.2
v 0.5 0.5 -0.2
v -0.4 0.9 0.5
v -0.4 1.1 0.5
v -0.3 0.7 0.5
v -0.3 0.8 0.5
v -0.3 1.1 0.5
v -0.3 1.2 0.5
v -0.2 0.4 0.5
v -0.2 0.5 0.5
v -0.2 0.6 0.5
v -0.2 1 0.5
v -0.2 1.1 0.5
v -0.1 0.4 0.5
v -0.1 0.5 0.5
v -0.1 0.6 0.5
v -0.1 1 0.5
v -0.1 1.1 0.5
v 0.1 0.4 0.5
v 0.1 0.5 0.5
v 0.1 0.6 0.5
v 0.1 1 0.5
v 0.1 1.1 0.5
v 0.2 0.4 0.5
v 0.2 0.5 0.5
v 0.2 0.6 0.5
v 0.2 1 0.5
v 0.2 1.1 0.5
v 0.3 0.7 0.5
v 0.3 0.8 0.5
v 0.3 1.1 0.5
v 0.3 1.2 0.5
v 0.4 0.9 0.5
v 0.4 1.1 0.5
v -0.4 0.7 0.4
v -0.4 0.8 0.4
v -0.4 1.1 0.4
v -0.4 1.2 0.4
v -0.3 0.7 0.4
v -0.3 0.8 0.4
v -0.3 1.1 0.4
v -0.3 1.2 0.4
v -0.3 1.3 0.4
v -0.2 0.8 0.4
v -0.2 0.9 0.4
v -0.2 1 0.4
v -0.2 1.1 0.4
v -0.1 0.8 0.4
v -0.1 0.9 0.4
v -0.1 1 0.4
v -0.1 1.1 0.4
v 0.1 0.8 0.4
v 0.1 0.9 0.4
v 0.1 1 0.4
v 0.1 1.1 0.4
v 0.2 0.8 0.4
v 0.2 0.9 0.4
v 0.2 1 0.4
v 0.2 1.1 0.4
v 0.3 0.7 0.4
v 0.3 0.8 0.4
v 0.3 1.1 0.4
v 0.3 1.2 0.4
v 0.3 1.3 0.4
v 0.4 0.7 0.4
v 0.4 0.8 0.4
v 0.4 1.1 0.4
v 0.4 1.2 0.4
v -0.4 0.3 0.3
v -0.4 0.5 0.3
v -0.4 0.8 0.3
v -0.4 0.9 0.3
v -0.3 0.2 0.3
v -0.3 0.3 0.3
v -0.3 0.5 0.3
v -0.3 0.7 0.3
v -0.2 0.5 0.3
v -0.2 0.6 0.3
v -0.2 0.8 0.3
v -0.2 0.9 0.3
v -0.1 0.5 0.3
v -0.1 0.6 0.3
v -0.1 0.8 0.3
v -0.1 0.9 0.3
v 0.1 0.5 0.3
v 0.1 0.6 0.3
v 0.1 0.8 0.3
v 0.1 0.9 0.3
v 0.2 0.5 0.3
v 0.2 0.6 0.3
v 0.2 0.8 0.3
v 0.2 0.9 0.3
v 0.3 0.2 0.3
v 0.3 0.3 0.3
v 0.3 0.5 0.3
v 0.3 0.7 0.3
v 0.4 0.3 0.3
v 0.4 0.5 0.3
v 0.4 0.8 0.3
v 0.4 0.9 0.3
v -0.5 0.3 0.2
v -0.5 0.5 0.2
v -0.4 0.2 0.2
v -0.4 0.3 0.2
v -0.4 0.5 0.2
v -0.4 0.6 0.2
v -0.3 0 0.2
v -0.3 0.1 0.2
v -0.3 0.2 0.2
v -0.3 0.3 0.2
v -0.3 0.5 0.2
v -0.3 0.6 0.2
v -0.1 0 0.2
v -0.1 0.1 0.2
v 0.1 0 0.2
v 0.1 0.1 0.2
v 0.3 0 0.2
v 0.3 0.1 0.2
v 0.3 0.2 0.2
v 0.3 0.3 0.2
v 0.3 0.5 0.2
v 0.3 0.6 0.2
v 0.4 0.2 0.2
v 0.4 0.3 0.2
v 0.4 0.5 0.2
v 0.4 0.6 0.2
v 0.5 0.3 0.2
v 0.5 0.5 0.2
v -0.3 0.1 0.1
v -0.3 0.2 0.1
v -0.1 0.1 0.1
v -0.1 0.2 0.1
v 0.1 0.1 0.1
v 0.1 0.2 0.1
v 0.3 0.1 0.1
v 0.3 0.2 0.1
v -0.1 0.5 -0.4
v -0.1 0.6 -0.4
v 0.1 0.5 -0.4
v 0.1 0.6 -0.4
v -0.1 0.6 -0.5
v -0.1 0.7 -0.5
v 0.1 0.6 -0.5
v 0.1 0.7 -0.5
v -0.2 0.4 0.4
v -0.2 0.5 0.4
v -0.1 0.4 0.4
v -0.1 0.5 0.4
v 0.1 0.4 0.4
v 0.1 0.5 0.4
v 0.2 0.4 0.4
v 0.2 0.5 0.4
v -0.3 0 -0.1
v -0.3 0.2 -0.1
v -0.1 0 -0.1
v -0.1 0.2 -0.1
v 0.1 0 -0.1
v 0.1 0.2 -0.1
v 0.3 0 -0.1
v 0.3 0.2 -0.1
v -0.5 0.3 -0.2
v -0.5 0.5 -0.2
v -0.4 0.2 -0.2
v -0.4 0.3 -0.2
v -0.4 0.4 -0.2
v -0.4 0.5 -0.2
v -0.4 0.6 -0.2
v -0.4 0.7 -0.2
v -0.4 0.8 -0.2
v -0.4 1.1 -0.2
v -0.4 1.2 -0.2
v -0.3 0.2 -0.2
v -0.3 0.3 -0.2
v -0.3 0.4 -0.2
v -0.3 0.5 -0.2
v -0.3 0.6 -0.2
v -0.3 0.7 -0.2
v -0.3 0.8 -0.2
v -0.3 1.1 -0.2
v -0.3 1.2 -0.2
v -0.3 1.3 -0.2
v 0.3 0.2 -0.2
v 0.3 0.3 -0.2
v 0.3 0.4 -0.2
v 0.3 0.5 -0.2
v 0.3 0.6 -0.2
v 0.3 0.7 -0.2
v 0.3 0.8 -0.2
v 0.3 1.1 -0.2
v 0.3 1.2 -0.2
v 0.3 1.3 -0.2
v 0.4 0.2 -0.2
v 0.4 0.3 -0.2
v 0.4 0.4 -0.2
v 0.4 0.5 -0.2
v 0.4 0.6 -0.2
v 0.4 0.7 -0.2
v 0.4 0.8 -0.2
v 0.4 1.1 -0.2
v 0.4 1.2 -0.2
v 0.5 0.3 -0.2
v 0.5 0.5 -0.2
v -0.4 0.3 -0.3
v -0.4 0.4 -0.3
v -0.4 0.8 -0.3
v -0.4 1.1 -0.3
v -0.3 0.2 -0.3
v -0.3 0.3 -0.3
v -0.3 0.4 -0.3
v -0.3 0.5 -0.3
v -0.3 0.7 -0.3
v -0.3 0.8 -0.3
v -0.3 1.1 -0.3
v -0.3 1.2 -0.3
v -0.1 0.2 -0.3
v -0.1 0.5 -0.3
v 0.1 0.2 -0.3
v 0.1 0.5 -0.3
v 0.3 0.2 -0.3
v 0.3 0.3 -0.3
v 0.3 0.4 -0.3
v 0.3 0.5 -0.3
v 0.3 0.7 -0.3
v 0.3 0.8 -0.3
v 0.3 1.1 -0.3
v 0.3 1.2 -0.3
v 0.4 0.3 -0.3
v 0.4 0.4 -0.3
v 0.4 0.8 -0.3
v 0.4 1.1 -0.3
v -0.1 0.2 -0.5
v -0.1 0.3 -0.5
v 0.1 0.2 -0.5
v 0.1 0.3 -0.5
v -0.1 0.3 -0.6
v -0.1 0.7 -0.6
v 0.1 0.3 -0.6
v 0.1 0.7 -0.6
v -0.3 0 0.2
v -0.1 0 0.2
v 0.1 0 0.2
v 0.3 0 0.2
v -0.3 0 0.1
v -0.1 0 0.1
v 0.1 0 0.1
v 0.3 0 0.1
v -0.3 0 -0.1
v -0.1 0 -0.1
v 0.1 0 -0.1
v 0.3 0 -0.1
v -0.3 0.2 0.3
v 0.3 0.2 0.3
v -0.4 0.2 0.2
v -0.3 0.2 0.2
v 0.3 0.2 0.2
v 0.4 0.2 0.2
v -0.3 0.2 0.1
v -0.1 0.2 0.1
v 0.1 0.2 0.1
v 0.3 0.2 0.1
v -0.3 0.2 -0.1
v -0.1 0.2 -0.1
v 0.1 0.2 -0.1
v 0.3 0.2 -0.1
v -0.4 0.2 -0.2
v -0.3 0.2 -0.2
v 0.3 0.2 -0.2
v 0.4 0.2 -0.2
v -0.3 0.2 -0.3
v -0.1 0.2 -0.3
v 0.1 0.2 -0.3
v 0.3 0.2 -0.3
v -0.1 0.2 -0.5
v 0.1 0.2 -0.5
v -0.4 0.3 0.3
v -0.3 0.3 0.3
v 0.3 0.3 0.3
v 0.4 0.3 0.3
v -0.5 0.3 0.2
v -0.4 0.3 0.2
v -0.3 0.3 0.2
v 0.3 0.3 0.2
v 0.4 0.3 0.2
v 0.5 0.3 0.2
v -0.5 0.3 -0.2
v -0.4 0.3 -0.2
v -0.3 0.3 -0.2
v 0.3 0.3 -0.2
v 0.4 0.3 -0.2
v 0.5 0.3 -0.2
v -0.4 0.3 -0.3
v -0.3 0.3 -0.3
v 0.3 0.3 -0.3
v 0.4 0.3 -0.3
v -0.1 0.3 -0.5
v 0.1 0.3 -0.5
v -0.1 0.3 -0.6
v 0.1 0.3 -0.6
v -0.2 0.4 0.5
v -0.1 0.4 0.5
v 0.1 0.4 0.5
v 0.2 0.4 0.5
v -0.2 0.4 0.4
v -0.1 0.4 0.4
v 0.1 0.4 0.4
v 0.2 0.4 0.4
v -0.2 0.5 0.4
v -0.1 0.5 0.4
v 0.1 0.5 0.4
v 0.2 0.5 0.4
v -0.2 0.5 0.3
v -0.1 0.5 0.3
v 0.1 0.5 0.3
v 0.2 0.5 0.3
v -0.3 0.7 0.5
v 0.3 0.7 0.5
v -0.4 0.7 0.4
v -0.3 0.7 0.4
v 0.3 0.7 0.4
v 0.4 0.7 0.4
v -0.3 0.7 0.3
v 0.3 0.7 0.3
v -0.4 0.7 -0.2
v -0.3 0.7 -0.2
v 0.3 0.7 -0.2
v 0.4 0.7 -0.2
v -0.3 0.7 -0.3
v 0.3 0.7 -0.3
v -0.4 0.8 -0.2
v -0.3 0.8 -0.2
v 0.3 0.8 -0.2
v 0.4 0.8 -0.2
v -0.4 0.8 -0.3
v -0.3 0.8 -0.3
v 0.3 0.8 -0.3
v 0.4 0.8 -0.3
v -0.4 0.9 0.5
v 0.4 0.9 0.5
v -0.2 0.9 0.4
v -0.1 0.9 0.4
v 0.1 0.9 0.4
v 0.2 0.9 0.4
v -0.4 0.9 0.3
v -0.2 0.9 0.3
v -0.1 0.9 0.3
v 0.1 0.9 0.3
v 0.2 0.9 0.3
v 0.4 0.9 0.3
v -0.2 1.1 0.5
v -0.1 1.1 0.5
v 0.1 1.1 0.5
v 0.2 1.1 0.5
v -0.2 1.1 0.4
v -0.1 1.1 0.4
v 0.1 1.1 0.4
v 0.2 1.1 0.4
v -0.3 0.1 0.2
v -0.1 0.1 0.2
v 0.1 0.1 0.2
v 0.3 0.1 0.2
v -0.3 0.1 0.1
v -0.1 0.1 0.1
v 0.1 0.1 0.1
v 0.3 0.1 0.1
v -0.4 0.4 -0.2
v -0.3 0.4 -0.2
v 0.3 0.4 -0.2
v 0.4 0.4 -0.2
v -0.4 0.4 -0.3
v -0.3 0.4 -0.3
v 0.3 0.4 -0.3
v 0.4 0.4 -0.3
v -0.4 0.5 0.3
v -0.3 0.5 0.3
v 0.3 0.5 0.3
v 0.4 0.5 0.3
v -0.5 0.5 0.2
v -0.4 0.5 0.2
v -0.3 0.5 0.2
v 0.3 0.5 0.2
v 0.4 0.5 0.2
v 0.5 0.5 0.2
v -0.5 0.5 -0.2
v -0.4 0.5 -0.2
v -0.3 0.5 -0.2
v 0.3 0.5 -0.2
v 0.4 0.5 -0.2
v 0.5 0.5 -0.2
v -0.3 0.5 -0.3
v -0.1 0.5 -0.3
v 0.1 0.5 -0.3
v 0.3 0.5 -0.3
v -0.1 0.5 -0.4
v 0.1 0.5 -0.4
v -0.2 0.6 0.5
v -0.1 0.6 0.5
v 0.1 0.6 0.5
v 0.2 0.6 0.5
v -0.2 0.6 0.3
v -0.1 0.6 0.3
v 0.1 0.6 0.3
v 0.2 0.6 0.3
v -0.4 0.6 0.2
v -0.3 0.6 0.2
v 0.3 0.6 0.2
v 0.4 0.6 0.2
v -0.4 0.6 -0.2
v -0.3 0.6 -0.2
v 0.3 0.6 -0.2
v 0.4 0.6 -0.2
v -0.1 0.6 -0.4
v 0.1 0.6 -0.4
v -0.1 0.6 -0.5
v 0.1 0.6 -0.5
v -0.1 0.7 -0.5
v 0.1 0.7 -0.5
v -0.1 0.7 -0.6
v 0.1 0.7 -0.6
v -0.3 0.8 0.5
v 0.3 0.8 0.5
v -0.4 0.8 0.4
v -0.3 0.8 0.4
v -0.2 0.8 0.4
v -0.1 0.8 0.4
v 0.1 0.8 0.4
v 0.2 0.8 0.4
v 0.3 0.8 0.4
v 0.4 0.8 0.4
v -0.4 0.8 0.3
v -0.2 0.8 0.3
v -0.1 0.8 0.3
v 0.1 0.8 0.3
v 0.2 0.8 0.3
v 0.4 0.8 0.3
v -0.2 1 0.5
v -0.1 1 0.5
v 0.1 1 0.5
v 0.2 1 0.5
v -0.2 1 0.4
v -0.1 1 0.4
v 0.1 1 0.4
v 0.2 1 0.4
v -0.4 1.1 0.5
v -0.3 1.1 0.5
v 0.3 1.1 0.5
v 0.4 1.1 0.5
v -0.4 1.1 0.4
v -0.3 1.1 0.4
v 0.3 1.1 0.4
v 0.4 1.1 0.4
v -0.4 1.1 -0.2
v -0.3 1.1 -0.2
v 0.3 1.1 -0.2
v 0.4 1.1 -0.2
v -0.4 1.1 -0.3
v -0.3 1.1 -0.3
v 0.3 1.1 -0.3
v 0.4 1.1 -0.3
v -0.3 1.2 0.5
v 0.3 1.2 0.5
v -0.4 1.2 0.4
v -0.3 1.2 0.4
v 0.3 1.2 0.4
v 0.4 1.2 0.4
v -0.4 1.2 -0.2
v -0.3 1.2 -0.2
v 0.3 1.2 -0.2
v 0.4 1.2 -0.2
v -0.3 1.2 -0.3
v 0.3 1.2 -0.3
v -0.3 1.3 0.4
v 0.3 1.3 0.4
v -0.3 1.3 -0.2
v 0.3 1.3 -0.2

# faces
f 3/1/1 2/1/1 1/1/1
f 4/1/1 2/1/1 3/1/1
f 8/1/1 6/1/1 5/1/1
f 9/1/1 6/1/1 8/1/1
f 11/1/1 10/1/1 9/1/1
f 12/1/1 10/1/1 11/1/1
f 13/1/1 8/1/1 7/1/1
f 14/1/1 8/1/1 13/1/1
f 16/1/1 15/1/1 14/1/1
f 17/1/1 15/1/1 16/1/1
f 20/1/1 19/1/1 18/1/1
f 21/1/1 19/1/1 20/1/1
f 22/1/1 19/1/1 21/1/1
f 25/1/1 22/1/1 21/1/1
f 25/1/1 23/1/1 22/1/1
f 26/1/1 23/1/1 25/1/1
f 27/1/1 23/1/1 26/1/1
f 28/1/1 23/1/1 27/1/1
f 29/1/1 25/1/1 24/1/1
f 29/1/1 26/1/1 25/1/1
f 30/1/1 26/1/1 29/1/1
f 31/3/1 27/3/1 26/3/1
f 31/1/1 26/1/1 30/1/1
f 32/2/1 28/2/1 27/2/1
f 32/3/1 27/3/1 31/3/1
f 33/1/1 23/1/1 28/1/1
f 33/2/1 28/2/1 32/2/1
f 34/1/1 23/1/1 33/1/1
f 35/1/1 23/1/1 34/1/1
f 36/1/1 32/1/1 31/1/1
f 36/1/1 31/1/1 30/1/1
f 36/1/1 34/1/1 33/1/1
f 36/1/1 33/1/1 32/1/1
f 37/1/1 34/1/1 36/1/1
f 41/2/1 39/2/1 38/2/1
f 42/1/1 40/1/1 39/1/1
f 42/2/1 39/2/1 41/2/1
f 45/1/1 40/1/1 42/1/1
f 46/1/1 40/1/1 45/1/1
f 49/1/1 44/1/1 43/1/1
f 50/1/1 44/1/1 49/1/1
f 51/1/1 48/1/1 47/1/1
f 52/1/1 48/1/1 51/1/1
f 57/1/1 54/1/1 53/1/1
f 58/1/1 54/1/1 57/1/1
f 59/1/1 56/1/1 55/1/1
f 63/1/1 59/1/1 55/1/1
f 63/1/1 60/1/1 59/1/1
f 64/1/1 60/1/1 63/1/1
f 66/1/1 62/1/1 61/1/1
f 67/1/1 62/1/1 66/1/1
f 68/1/1 65/1/1 64/1/1
f 69/1/1 65/1/1 68/1/1
f 74/1/1 71/1/1 70/1/1
f 75/1/1 71/1/1 74/1/1
f 76/1/1 73/1/1 72/1/1
f 77/1/1 73/1/1 76/1/1
f 78/1/1 76/1/1 75/1/1
f 79/1/1 76/1/1 78/1/1
f 82/2/1 81/2/1 80/2/1
f 83/2/1 81/2/1 82/2/1
f 85/1/1 83/1/1 82/1/1
f 85/1/1 84/1/1 83/1/1
f 86/1/1 84/1/1 85/1/1
f 89/2/1 88/2/1 87/2/1
f 90/2/1 88/2/1 89/2/1
f 93/1/1 92/1/1 91/1/1
f 95/1/1 93/1/1 91/1/1
f 95/1/1 94/1/1 93/1/1
f 96/1/1 94/1/1 95/1/1
f 97/1/1 94/1/1 96/1/1
f 98/1/1 94/1/1 97/1/1
f 99/1/1 94/1/1 98/1/1
f 100/1/1 94/1/1 99/1/1
f 103/1/1 102/1/1 101/1/1
f 104/1/1 102/1/1 103/1/1
f 108/2/1 106/2/1 105/2/1
f 109/1/1 107/1/1 106/1/1
f 109/2/1 106/2/1 108/2/1
f 110/1/1 107/1/1 109/1/1
f 111/1/1 107/1/1 110/1/1
f 114/2/1 113/2/1 112/2/1
f 115/2/1 113/2/1 114/2/1
f 117/1/1 115/1/1 114/1/1
f 117/1/1 116/1/1 115/1/1
f 118/1/1 116/1/1 117/1/1
f 121/2/1 120/2/1 119/2/1
f 122/2/1 120/2/1 121/2/1
f 125/1/1 124/1/1 123/1/1
f 126/1/1 124/1/1 125/1/1
f 127/1/2 128/1/2 129/1/2
f 129/1/2 128/1/2 130/1/2
f 131/2/2 132/2/2 134/2/2
f 132/1/2 133/1/2 135/1/2
f 134/2/2 132/2/2 135/2/2
f 135/1/2 133/1/2 136/1/2
f 136/1/2 133/1/2 137/1/2
f 138/2/2 139/2/2 140/2/2
f 140/2/2 139/2/2 141/2/2
f 140/1/2 141/1/2 143/1/2
f 141/1/2 142/1/2 143/1/2
f 143/1/2 142/1/2 144/1/2
f 145/2/2 146/2/2 147/2/2
f 147/2/2 146/2/2 148/2/2
f 149/1/2 150/1/2 151/1/2
f 149/1/2 151/1/2 153/1/2
f 151/1/2 152/1/2 153/1/2
f 153/1/2 152/1/2 154/1/2
f 154/1/2 152/1/2 155/1/2
f 155/1/2 152/1/2 156/1/2
f 156/1/2 152/1/2 157/1/2
f 157/1/2 152/1/2 158/1/2
f 159/1/2 160/1/2 161/1/2
f 161/1/2 160/1/2 162/1/2
f 163/2/2 164/2/2 165/2/2
f 165/2/2 164/2/2 166/2/2
f 165/1/2 166/1/2 168/1/2
f 166/1/2 167/1/2 168/1/2
f 168/1/2 167/1/2 169/1/2
f 170/2/2 171/2/2 172/2/2
f 172/2/2 171/2/2 173/2/2
f 174/2/2 175/2/2 177/2/2
f 175/1/2 176/1/2 178/1/2
f 177/2/2 175/2/2 178/2/2
f 178/1/2 176/1/2 181/1/2
f 181/1/2 176/1/2 182/1/2
f 179/1/2 180/1/2 185/1/2
f 185/1/2 180/1/2 186/1/2
f 183/1/2 184/1/2 187/1/2
f 187/1/2 184/1/2 188/1/2
f 189/1/2 190/1/2 193/1/2
f 193/1/2 190/1/2 194/1/2
f 191/1/2 192/1/2 195/1/2
f 191/1/2 195/1/2 199/1/2
f 195/1/2 196/1/2 199/1/2
f 199/1/2 196/1/2 200/1/2
f 197/1/2 198/1/2 202/1/2
f 202/1/2 198/1/2 203/1/2
f 200/1/2 201/1/2 204/1/2
f 204/1/2 201/1/2 205/1/2
f 206/1/2 207/1/2 210/1/2
f 210/1/2 207/1/2 211/1/2
f 208/1/2 209/1/2 212/1/2
f 212/1/2 209/1/2 213/1/2
f 211/1/2 212/1/2 214/1/2
f 214/1/2 212/1/2 215/1/2
f 216/1/2 217/1/2 219/1/2
f 219/1/2 217/1/2 220/1/2
f 220/1/2 221/1/2 222/1/2
f 222/1/2 221/1/2 223/1/2
f 218/1/2 219/1/2 224/1/2
f 224/1/2 219/1/2 225/1/2
f 225/1/2 226/1/2 227/1/2
f 227/1/2 226/1/2 228/1/2
f 229/1/2 230/1/2 231/1/2
f 231/1/2 230/1/2 232/1/2
f 232/1/2 230/1/2 233/1/2
f 232/1/2 233/1/2 236/1/2
f 233/1/2 234/1/2 236/1/2
f 236/1/2 234/1/2 237/1/2
f 237/1/2 234/1/2 238/1/2
f 238/1/2 234/1/2 239/1/2
f 235/1/2 236/1/2 240/1/2
f 236/1/2 237/1/2 240/1/2
f 240/1/2 237/1/2 241/1/2
f 237/3/2 238/3/2 242/3/2
f 241/1/2 237/1/2 242/1/2
f 238/2/2 239/2/2 243/2/2
f 242/3/2 238/3/2 243/3/2
f 239/1/2 234/1/2 244/1/2
f 243/2/2 239/2/2 244/2/2
f 244/1/2 234/1/2 245/1/2
f 245/1/2 234/1/2 246/1/2
f 242/1/2 243/1/2 247/1/2
f 241/1/2 242/1/2 247/1/2
f 244/1/2 245/1/2 247/1/2
f 243/1/2 244/1/2 247/1/2
f 247/1/2 245/1/2 248/1/2
f 249/1/2 250/1/2 251/1/2
f 251/1/2 250/1/2 252/1/2
f 257/1/3 254/1/3 253/1/3
f 262/1/3 257/1/3 253/1/3
f 262/1/3 258/1/3 257/1/3
f 263/1/3 258/1/3 262/1/3
f 264/2/3 260/2/3 259/2/3
f 265/1/3 261/1/3 260/1/3
f 265/2/3 260/2/3 264/2/3
f 266/1/3 261/1/3 265/1/3
f 267/1/3 262/1/3 253/1/3
f 268/1/3 258/1/3 263/1/3
f 272/1/3 267/1/3 253/1/3
f 272/1/3 268/1/3 267/1/3
f 273/1/3 258/1/3 268/1/3
f 273/1/3 268/1/3 272/1/3
f 274/2/3 270/2/3 269/2/3
f 275/1/3 271/1/3 270/1/3
f 275/2/3 270/2/3 274/2/3
f 276/1/3 271/1/3 275/1/3
f 277/1/3 272/1/3 253/1/3
f 278/1/3 258/1/3 273/1/3
f 279/1/3 256/1/3 255/1/3
f 280/1/3 256/1/3 279/1/3
f 281/1/3 278/1/3 277/1/3
f 281/1/3 258/1/3 278/1/3
f 282/1/3 258/1/3 281/1/3
f 283/1/3 277/1/3 253/1/3
f 283/1/3 281/1/3 277/1/3
f 284/1/3 281/1/3 283/1/3
f 289/1/3 286/1/3 285/1/3
f 290/1/3 286/1/3 289/1/3
f 291/1/3 288/1/3 287/1/3
f 292/1/3 288/1/3 291/1/3
f 298/2/3 295/2/3 294/2/3
f 299/2/3 295/2/3 298/2/3
f 300/3/3 297/3/3 296/3/3
f 301/3/3 297/3/3 300/3/3
f 306/2/3 303/2/3 302/2/3
f 307/2/3 303/2/3 306/2/3
f 308/3/3 305/3/3 304/3/3
f 309/3/3 305/3/3 308/3/3
f 313/1/3 293/1/3 292/1/3
f 314/1/3 293/1/3 313/1/3
f 315/1/3 311/1/3 310/1/3
f 316/1/3 311/1/3 315/1/3
f 317/1/3 313/1/3 312/1/3
f 318/1/3 313/1/3 317/1/3
f 324/1/3 320/1/3 319/1/3
f 325/1/3 320/1/3 324/1/3
f 327/1/3 324/1/3 323/1/3
f 327/1/3 326/1/3 325/1/3
f 327/1/3 325/1/3 324/1/3
f 328/1/3 326/1/3 327/1/3
f 329/1/3 322/1/3 321/1/3
f 330/1/3 322/1/3 329/1/3
f 331/1/3 327/1/3 323/1/3
f 332/1/3 326/1/3 328/1/3
f 335/1/3 331/1/3 323/1/3
f 335/1/3 332/1/3 331/1/3
f 336/1/3 326/1/3 332/1/3
f 336/1/3 332/1/3 335/1/3
f 337/1/3 334/1/3 333/1/3
f 338/1/3 334/1/3 337/1/3
f 339/1/3 335/1/3 323/1/3
f 340/1/3 326/1/3 336/1/3
f 343/1/3 339/1/3 323/1/3
f 343/1/3 340/1/3 339/1/3
f 344/1/3 340/1/3 343/1/3
f 345/1/3 340/1/3 344/1/3
f 346/1/3 326/1/3 340/1/3
f 346/1/3 340/1/3 345/1/3
f 347/1/3 345/1/3 344/1/3
f 348/1/3 345/1/3 347/1/3
f 349/1/3 342/1/3 341/1/3
f 350/1/3 342/1/3 349/1/3
f 354/1/3 352/1/3 351/1/3
f 355/1/3 352/1/3 354/1/3
f 359/1/3 354/1/3 353/1/3
f 360/1/3 354/1/3 359/1/3
f 361/1/3 356/1/3 355/1/3
f 362/1/3 356/1/3 361/1/3
f 363/2/3 358/2/3 357/2/3
f 364/2/3 358/2/3 363/2/3
f 367/2/3 366/2/3 365/2/3
f 368/2/3 366/2/3 367/2/3
f 373/1/3 370/1/3 369/1/3
f 374/1/3 370/1/3 373/1/3
f 375/1/3 372/1/3 371/1/3
f 376/1/3 372/1/3 375/1/3
f 377/1/3 375/1/3 374/1/3
f 378/1/3 375/1/3 377/1/3
f 381/1/3 380/1/3 379/1/3
f 382/1/3 380/1/3 381/1/3
f 385/1/3 384/1/3 383/1/3
f 386/1/3 384/1/3 385/1/3
f 389/1/3 388/1/3 387/1/3
f 390/1/3 388/1/3 389/1/3
f 393/1/3 392/1/3 391/1/3
f 394/1/3 392/1/3 393/1/3
f 395/2/4 396/2/4 397/2/4
f 397/2/4 396/2/4 398/2/4
f 399/2/4 400/2/4 401/2/4
f 401/2/4 400/2/4 402/2/4
f 403/1/4 404/1/4 405/1/4
f 405/1/4 404/1/4 406/1/4
f 407/1/4 408/1/4 409/1/4
f 409/1/4 408/1/4 410/1/4
f 411/1/4 412/1/4 414/1/4
f 414/1/4 412/1/4 415/1/4
f 415/1/4 412/1/4 416/1/4
f 413/1/4 414/1/4 422/1/4
f 422/1/4 414/1/4 423/1/4
f 415/1/4 416/1/4 424/1/4
f 416/1/4 417/1/4 424/1/4
f 424/1/4 417/1/4 425/1/4
f 425/1/4 417/1/4 426/1/4
f 418/1/4 419/1/4 427/1/4
f 427/1/4 419/1/4 428/1/4
f 420/1/4 421/1/4 429/1/4
f 429/1/4 421/1/4 430/1/4
f 425/1/4 426/1/4 435/1/4
f 426/1/4 427/1/4 435/1/4
f 435/1/4 427/1/4 436/1/4
f 436/1/4 427/1/4 437/1/4
f 430/1/4 431/1/4 440/1/4
f 440/1/4 431/1/4 441/1/4
f 432/1/4 433/1/4 442/1/4
f 442/1/4 433/1/4 443/1/4
f 434/1/4 435/1/4 444/1/4
f 435/1/4 436/1/4 444/1/4
f 444/1/4 436/1/4 445/1/4
f 445/1/4 436/1/4 446/1/4
f 437/1/4 438/1/4 447/1/4
f 447/1/4 438/1/4 448/1/4
f 439/1/4 440/1/4 449/1/4
f 449/1/4 440/1/4 450/1/4
f 443/1/4 444/1/4 451/1/4
f 444/1/4 445/1/4 451/1/4
f 451/1/4 445/1/4 452/1/4
f 453/1/4 454/1/4 458/1/4
f 458/1/4 454/1/4 459/1/4
f 455/1/4 456/1/4 462/1/4
f 462/1/4 456/1/4 463/1/4
f 459/1/4 460/1/4 465/1/4
f 457/1/4 458/1/4 465/1/4
f 458/1/4 459/1/4 465/1/4
f 465/1/4 460/1/4 466/1/4
f 467/1/4 468/1/4 469/1/4
f 469/1/4 468/1/4 470/1/4
f 470/1/4 468/1/4 471/1/4
f 471/1/4 468/1/4 472/1/4
f 463/1/4 464/1/4 473/1/4
f 462/1/4 463/1/4 473/1/4
f 461/1/4 462/1/4 473/1/4
f 473/1/4 464/1/4 474/1/4
f 474/1/4 464/1/4 475/1/4
f 475/1/4 464/1/4 476/1/4
f 470/1/4 471/1/4 477/1/4
f 477/1/4 471/1/4 478/1/4
f 474/1/4 475/1/4 479/1/4
f 479/1/4 475/1/4 480/1/4
f 481/1/4 482/1/4 483/1/4
f 483/1/4 482/1/4 484/1/4
f 485/1/4 486/1/4 487/1/4
f 487/1/4 486/1/4 488/1/4
f 493/2/5 490/2/5 489/2/5
f 494/2/5 490/2/5 493/2/5
f 495/2/5 492/2/5 491/2/5
f 496/2/5 492/2/5 495/2/5
f 497/1/5 494/1/5 493/1/5
f 498/1/5 494/1/5 497/1/5
f 499/1/5 496/1/5 495/1/5
f 500/1/5 496/1/5 499/1/5
f 504/1/5 502/1/5 501/1/5
f 505/1/5 502/1/5 504/1/5
f 507/1/5 504/1/5 503/1/5
f 507/1/5 506/1/5 505/1/5
f 507/1/5 505/1/5 504/1/5
f 508/1/5 506/1/5 507/1/5
f 509/1/5 506/1/5 508/1/5
f 510/1/5 506/1/5 509/1/5
f 511/1/5 507/1/5 503/1/5
f 512/1/5 509/1/5 508/1/5
f 513/1/5 509/1/5 512/1/5
f 514/1/5 506/1/5 510/1/5
f 515/1/5 513/1/5 512/1/5
f 515/1/5 514/1/5 513/1/5
f 515/1/5 511/1/5 503/1/5
f 515/1/5 512/1/5 511/1/5
f 516/1/5 514/1/5 515/1/5
f 517/1/5 506/1/5 514/1/5
f 517/1/5 514/1/5 516/1/5
f 518/1/5 506/1/5 517/1/5
f 519/1/5 517/1/5 516/1/5
f 520/1/5 517/1/5 519/1/5
f 521/1/5 517/1/5 520/1/5
f 522/1/5 517/1/5 521/1/5
f 523/1/5 521/1/5 520/1/5
f 524/1/5 521/1/5 523/1/5
f 530/1/5 526/1/5 525/1/5
f 531/1/5 526/1/5 530/1/5
f 532/1/5 528/1/5 527/1/5
f 533/1/5 528/1/5 532/1/5
f 535/1/5 530/1/5 529/1/5
f 536/1/5 530/1/5 535/1/5
f 539/1/5 534/1/5 533/1/5
f 540/1/5 534/1/5 539/1/5
f 541/1/5 537/1/5 536/1/5
f 542/1/5 537/1/5 541/1/5
f 543/1/5 539/1/5 538/1/5
f 544/1/5 539/1/5 543/1/5
f 547/1/5 546/1/5 545/1/5
f 548/1/5 546/1/5 547/1/5
f 553/2/5 550/2/5 549/2/5
f 554/2/5 550/2/5 553/2/5
f 555/2/5 552/2/5 551/2/5
f 556/2/5 552/2/5 555/2/5
f 561/1/5 558/1/5 557/1/5
f 562/1/5 558/1/5 561/1/5
f 563/1/5 560/1/5 559/1/5
f 564/1/5 560/1/5 563/1/5
f 568/1/5 566/1/5 565/1/5
f 569/1/5 566/1/5 568/1/5
f 571/1/5 568/1/5 567/1/5
f 571/1/5 570/1/5 569/1/5
f 571/1/5 569/1/5 568/1/5
f 572/1/5 570/1/5 571/1/5
f 573/1/5 571/1/5 567/1/5
f 574/1/5 571/1/5 573/1/5
f 575/1/5 570/1/5 572/1/5
f 576/1/5 570/1/5 575/1/5
f 577/1/5 575/1/5 574/1/5
f 578/1/5 575/1/5 577/1/5
f 583/1/5 580/1/5 579/1/5
f 584/1/5 580/1/5 583/1/5
f 585/1/5 582/1/5 581/1/5
f 586/1/5 582/1/5 585/1/5
f 589/1/5 588/1/5 587/1/5
f 590/1/5 588/1/5 589/1/5
f 591/1/5 588/1/5 590/1/5
f 592/1/5 588/1/5 591/1/5
f 593/1/5 589/1/5 587/1/5
f 594/1/5 589/1/5 593/1/5
f 595/1/5 591/1/5 590/1/5
f 596/1/5 591/1/5 595/1/5
f 597/1/5 588/1/5 592/1/5
f 598/1/5 588/1/5 597/1/5
f 603/1/5 600/1/5 599/1/5
f 604/1/5 600/1/5 603/1/5
f 605/1/5 602/1/5 601/1/5
f 606/1/5 602/1/5 605/1/5
f 607/2/6 608/2/6 611/2/6
f 611/2/6 608/2/6 612/2/6
f 609/2/6 610/2/6 613/2/6
f 613/2/6 610/2/6 614/2/6
f 615/1/6 616/1/6 619/1/6
f 619/1/6 616/1/6 620/1/6
f 617/1/6 618/1/6 621/1/6
f 621/1/6 618/1/6 622/1/6
f 623/1/6 624/1/6 628/1/6
f 628/1/6 624/1/6 629/1/6
f 625/1/6 626/1/6 630/1/6
f 630/1/6 626/1/6 631/1/6
f 627/1/6 628/1/6 633/1/6
f 633/1/6 628/1/6 634/1/6
f 631/1/6 632/1/6 637/1/6
f 637/1/6 632/1/6 638/1/6
f 635/1/6 636/1/6 639/1/6
f 639/1/6 636/1/6 640/1/6
f 640/1/6 636/1/6 641/1/6
f 641/1/6 636/1/6 642/1/6
f 640/1/6 641/1/6 643/1/6
f 643/1/6 641/1/6 644/1/6
f 645/1/6 646/1/6 649/1/6
f 649/1/6 646/1/6 650/1/6
f 647/1/6 648/1/6 651/1/6
f 651/1/6 648/1/6 652/1/6
f 653/1/6 654/1/6 657/1/6
f 657/1/6 654/1/6 658/1/6
f 655/1/6 656/1/6 659/1/6
f 659/1/6 656/1/6 660/1/6
f 661/1/6 662/1/6 663/1/6
f 663/1/6 662/1/6 664/1/6
f 665/1/6 666/1/6 667/1/6
f 667/1/6 666/1/6 668/1/6
f 669/1/6 670/1/6 672/1/6
f 672/1/6 670/1/6 673/1/6
f 673/1/6 670/1/6 674/1/6
f 674/1/6 670/1/6 675/1/6
f 675/1/6 670/1/6 676/1/6
f 676/1/6 670/1/6 677/1/6
f 671/1/6 672/1/6 679/1/6
f 672/1/6 673/1/6 679/1/6
f 679/1/6 673/1/6 680/1/6
f 674/1/6 675/1/6 681/1/6
f 681/1/6 675/1/6 682/1/6
f 677/1/6 678/1/6 683/1/6
f 676/1/6 677/1/6 683/1/6
f 683/1/6 678/1/6 684/1/6
f 685/1/6 686/1/6 689/1/6
f 689/1/6 686/1/6 690/1/6
f 687/1/6 688/1/6 691/1/6
f 691/1/6 688/1/6 692/1/6
f 693/1/6 694/1/6 697/1/6
f 697/1/6 694/1/6 698/1/6
f 695/1/6 696/1/6 699/1/6
f 699/1/6 696/1/6 700/1/6
f 701/1/6 702/1/6 705/1/6
f 705/1/6 702/1/6 706/1/6
f 703/1/6 704/1/6 707/1/6
f 707/1/6 704/1/6 708/1/6
f 709/1/6 710/1/6 712/1/6
f 712/1/6 710/1/6 713/1/6
f 711/1/6 712/1/6 715/1/6
f 715/1/6 712/1/6 716/1/6
f 713/1/6 714/1/6 717/1/6
f 717/1/6 714/1/6 718/1/6
f 716/1/6 717/1/6 719/1/6
f 719/1/6 717/1/6 720/1/6
f 721/1/6 722/1/6 723/1/6
f 723/1/6 722/1/6 724/1/6
